<!--?xml version="1.0" standalone="no"?-->
              <svg id="sw-js-blob-svg" viewBox="0 0 100 100" xmlns="http://www.w3.org/2000/svg" version="1.1">
                    <defs> 
                        <linearGradient id="sw-gradient" x1="0" x2="1" y1="1" y2="0">
                            <stop id="stop1" stop-color="rgba(248, 117, 55, 1)" offset="0%"></stop>
                            <stop id="stop2" stop-color="rgba(251, 168, 31, 1)" offset="100%"></stop>
                        </linearGradient>
                    </defs>
                <path fill="url(#sw-gradient)" d="M24.9,-29.2C30.7,-24.9,32.6,-15.5,33.1,-6.7C33.6,2,32.6,10.1,29,17.2C25.5,24.3,19.4,30.3,12,32.9C4.7,35.5,-3.8,34.7,-11.5,31.8C-19.1,28.9,-25.9,23.9,-29.9,17.2C-33.8,10.5,-34.8,2.1,-34.1,-6.7C-33.3,-15.4,-30.8,-24.5,-24.8,-28.9C-18.8,-33.3,-9.4,-32.9,0.1,-32.9C9.6,-33,19.2,-33.6,24.9,-29.2Z" width="100%" height="100%" transform="translate(50 50)" stroke-width="0" style="transition: all 0.3s ease 0s;"></path>
              </svg>