<?xml version="1.0" encoding="utf-8"?>
<!-- Generator: Adobe Illustrator 27.3.1, SVG Export Plug-In . SVG Version: 6.00 Build 0)  -->
<svg version="1.1" id="Layer_1" xmlns="http://www.w3.org/2000/svg" xmlns:xlink="http://www.w3.org/1999/xlink" x="0px" y="0px"
	 viewBox="0 0 537.26 537.26" style="enable-background:new 0 0 537.26 537.26;" xml:space="preserve">
<g>
	<path d="M-324.38-1.31h-448.86c-13.47,0-24.39-10.92-24.39-24.39v-448.86c0-13.47,10.92-24.39,24.39-24.39h448.86
		c13.47,0,24.39,10.92,24.39,24.39V-25.7C-299.99-12.23-310.91-1.31-324.38-1.31z"/>
</g>
<circle cx="268.63" cy="268.63" r="263.32"/>
<ellipse cx="1670.38" cy="-871.89" rx="209.63" ry="322.91"/>
<path d="M517.23-710.86H293.01c-13.47,0-24.39-10.92-24.39-24.39v-591.84c0-13.47,10.92-24.39,24.39-24.39h224.21
	c13.47,0,24.39,10.92,24.39,24.39v591.84C541.62-721.78,530.7-710.86,517.23-710.86z"/>
<path d="M-761.49-1356.32l-258.56,447.84c-9.39,16.26,2.35,36.58,21.12,36.58h517.12c18.77,0,30.51-20.32,21.12-36.58
	l-258.56-447.84C-728.64-1372.57-752.1-1372.57-761.49-1356.32z"/>
</svg>
