<?xml version="1.0" encoding="utf-8"?>
<!-- Generator: Adobe Illustrator 27.3.1, SVG Export Plug-In . SVG Version: 6.00 Build 0)  -->
<svg version="1.1" id="Layer_1" xmlns="http://www.w3.org/2000/svg" xmlns:xlink="http://www.w3.org/1999/xlink" x="0px" y="0px"
	 viewBox="0 0 445.35 667.21" style="enable-background:new 0 0 445.35 667.21;" xml:space="preserve">
<g>
	<path d="M-370.33,63.66h-448.86c-13.47,0-24.39-10.92-24.39-24.39v-448.86c0-13.47,10.92-24.39,24.39-24.39h448.86
		c13.47,0,24.39,10.92,24.39,24.39V39.28C-345.94,52.74-356.86,63.66-370.33,63.66z"/>
</g>
<circle cx="-134.4" cy="-468.89" r="263.32"/>
<ellipse cx="222.68" cy="333.6" rx="209.63" ry="322.91"/>
<path d="M471.28-645.88H247.06c-13.47,0-24.39-10.92-24.39-24.39v-591.84c0-13.47,10.92-24.39,24.39-24.39h224.22
	c13.47,0,24.39,10.92,24.39,24.39v591.84C495.66-656.8,484.75-645.88,471.28-645.88z"/>
<path d="M-807.44-1291.34l-258.56,447.84c-9.39,16.26,2.35,36.58,21.12,36.58h517.12c18.77,0,30.51-20.32,21.12-36.58
	l-258.56-447.84C-774.59-1307.6-798.06-1307.6-807.44-1291.34z"/>
</svg>
