<?xml version="1.0" encoding="utf-8"?>
<!-- Generator: Adobe Illustrator 27.3.1, SVG Export Plug-In . SVG Version: 6.00 Build 0)  -->
<svg version="1.1" id="Layer_1" xmlns="http://www.w3.org/2000/svg" xmlns:xlink="http://www.w3.org/1999/xlink" x="0px" y="0px"
	 viewBox="0 0 272.99 640.61" style="enable-background:new 0 0 272.99 640.61;" xml:space="preserve">
<g>
	<path d="M-456.51,50.36h-448.86c-13.47,0-24.39-10.92-24.39-24.39v-448.86c0-13.47,10.92-24.39,24.39-24.39h448.86
		c13.47,0,24.39,10.92,24.39,24.39V25.98C-432.13,39.45-443.04,50.36-456.51,50.36z"/>
</g>
<circle cx="-220.58" cy="-482.19" r="263.32"/>
<ellipse cx="840.47" cy="-13.3" rx="209.63" ry="322.91"/>
<path d="M248.6,640.61H24.39C10.92,640.61,0,629.69,0,616.23V24.39C0,10.92,10.92,0,24.39,0H248.6c13.47,0,24.39,10.92,24.39,24.39
	v591.84C272.99,629.69,262.07,640.61,248.6,640.61z"/>
<path d="M-893.62-1304.64l-258.56,447.84c-9.39,16.26,2.35,36.58,21.12,36.58h517.12c18.77,0,30.51-20.32,21.12-36.58
	l-258.56-447.84C-860.77-1320.9-884.24-1320.9-893.62-1304.64z"/>
</svg>
