<?xml version="1.0" encoding="utf-8"?>
<!-- Generator: Adobe Illustrator 27.3.1, SVG Export Plug-In . SVG Version: 6.00 Build 0)  -->
<svg version="1.1" id="Layer_1" xmlns="http://www.w3.org/2000/svg" xmlns:xlink="http://www.w3.org/1999/xlink" x="0px" y="0px"
	 viewBox="0 0 497.63 497.63" style="enable-background:new 0 0 497.63 497.63;" xml:space="preserve">
<g>
	<path d="M473.24,497.63H24.39C10.92,497.63,0,486.71,0,473.24V24.39C0,10.92,10.92,0,24.39,0h448.86
		c13.47,0,24.39,10.92,24.39,24.39v448.86C497.63,486.71,486.71,497.63,473.24,497.63z"/>
</g>
<circle cx="1100.54" cy="-1087.38" r="263.32"/>
<ellipse cx="1650.57" cy="-891.71" rx="209.63" ry="322.91"/>
<path d="M497.42-730.67H273.2c-13.47,0-24.39-10.92-24.39-24.39v-591.84c0-13.47,10.92-24.39,24.39-24.39h224.21
	c13.47,0,24.39,10.92,24.39,24.39v591.84C521.8-741.59,510.89-730.67,497.42-730.67z"/>
<path d="M635.36-694.09L376.8-246.25c-9.39,16.26,2.35,36.58,21.12,36.58h517.12c18.77,0,30.51-20.32,21.12-36.58L677.6-694.09
	C668.21-710.35,644.75-710.35,635.36-694.09z"/>
</svg>
