<svg width="299" height="160" viewBox="0 0 299 160" fill="none" xmlns="http://www.w3.org/2000/svg">
<circle cx="129.5" cy="32.5" r="32.5" fill="#CCCCCC"/>
<rect x="298.302" y="78.2798" width="50" height="98" rx="6" transform="rotate(127.163 298.302 78.2798)" fill="#CCCCCC"/>
<path d="M156.804 71C159.113 67 164.887 67 167.196 71L199.239 126.5C201.549 130.5 198.662 135.5 194.043 135.5H129.957C125.338 135.5 122.452 130.5 124.761 126.5L156.804 71Z" fill="#CCCCCC"/>
<rect x="35" y="87.0797" width="62" height="62" rx="6" fill="#CCCCCC"/>
<rect x="236.65" y="34.0652" width="55.967" height="25.9847" rx="12.9923" fill="white" stroke="black" stroke-width="0.499705"/>
<rect x="68.6498" y="8.24985" width="55.967" height="25.9847" rx="12.9923" fill="white" stroke="black" stroke-width="0.499705"/>
<rect x="4.64975" y="105.25" width="55.967" height="25.9847" rx="12.9923" fill="white" stroke="black" stroke-width="0.499705"/>
<rect x="166.65" y="96.2499" width="55.967" height="25.9847" rx="12.9923" fill="white" stroke="black" stroke-width="0.499705"/>
<path d="M251.813 50.5453C251.232 50.5453 250.732 50.4138 250.313 50.1508C249.896 49.8851 249.576 49.5192 249.352 49.0531C249.128 48.587 249.016 48.0531 249.016 47.4515C249.016 46.8422 249.13 46.3044 249.359 45.8383C249.589 45.3695 249.911 45.0036 250.328 44.7406C250.745 44.4776 251.236 44.3461 251.801 44.3461C252.257 44.3461 252.663 44.4307 253.02 44.6C253.376 44.7666 253.664 45.001 253.883 45.3031C254.104 45.6052 254.236 45.958 254.277 46.3617H253.141C253.078 46.0804 252.935 45.8383 252.711 45.6351C252.49 45.432 252.193 45.3304 251.82 45.3304C251.495 45.3304 251.21 45.4164 250.965 45.5883C250.723 45.7575 250.534 45.9997 250.398 46.3148C250.263 46.6273 250.195 46.9971 250.195 47.4242C250.195 47.8617 250.262 48.2393 250.395 48.557C250.527 48.8747 250.715 49.1208 250.957 49.2953C251.202 49.4698 251.49 49.557 251.82 49.557C252.042 49.557 252.242 49.5166 252.422 49.4359C252.604 49.3526 252.757 49.2341 252.879 49.0804C253.004 48.9268 253.091 48.7419 253.141 48.5258H254.277C254.236 48.9138 254.109 49.2601 253.898 49.5648C253.688 49.8695 253.405 50.1091 253.051 50.2836C252.699 50.458 252.286 50.5453 251.813 50.5453ZM258.054 50.5453C257.491 50.5453 257 50.4164 256.581 50.1586C256.162 49.9008 255.836 49.5401 255.604 49.0765C255.373 48.613 255.257 48.0713 255.257 47.4515C255.257 46.8291 255.373 46.2849 255.604 45.8187C255.836 45.3526 256.162 44.9906 256.581 44.7328C257 44.475 257.491 44.3461 258.054 44.3461C258.616 44.3461 259.107 44.475 259.526 44.7328C259.946 44.9906 260.271 45.3526 260.503 45.8187C260.735 46.2849 260.851 46.8291 260.851 47.4515C260.851 48.0713 260.735 48.613 260.503 49.0765C260.271 49.5401 259.946 49.9008 259.526 50.1586C259.107 50.4164 258.616 50.5453 258.054 50.5453ZM258.058 49.5648C258.422 49.5648 258.724 49.4685 258.964 49.2758C259.203 49.083 259.381 48.8265 259.495 48.5062C259.612 48.1859 259.671 47.833 259.671 47.4476C259.671 47.0648 259.612 46.7133 259.495 46.3929C259.381 46.07 259.203 45.8109 258.964 45.6156C258.724 45.4203 258.422 45.3226 258.058 45.3226C257.69 45.3226 257.386 45.4203 257.144 45.6156C256.904 45.8109 256.726 46.07 256.608 46.3929C256.494 46.7133 256.437 47.0648 256.437 47.4476C256.437 47.833 256.494 48.1859 256.608 48.5062C256.726 48.8265 256.904 49.083 257.144 49.2758C257.386 49.4685 257.69 49.5648 258.058 49.5648ZM263.322 42.4242V50.4242H262.154V42.4242H263.322ZM267.421 50.5453C266.858 50.5453 266.368 50.4164 265.948 50.1586C265.529 49.9008 265.203 49.5401 264.972 49.0765C264.74 48.613 264.624 48.0713 264.624 47.4515C264.624 46.8291 264.74 46.2849 264.972 45.8187C265.203 45.3526 265.529 44.9906 265.948 44.7328C266.368 44.475 266.858 44.3461 267.421 44.3461C267.983 44.3461 268.474 44.475 268.894 44.7328C269.313 44.9906 269.638 45.3526 269.87 45.8187C270.102 46.2849 270.218 46.8291 270.218 47.4515C270.218 48.0713 270.102 48.613 269.87 49.0765C269.638 49.5401 269.313 49.9008 268.894 50.1586C268.474 50.4164 267.983 50.5453 267.421 50.5453ZM267.425 49.5648C267.789 49.5648 268.091 49.4685 268.331 49.2758C268.571 49.083 268.748 48.8265 268.862 48.5062C268.979 48.1859 269.038 47.833 269.038 47.4476C269.038 47.0648 268.979 46.7133 268.862 46.3929C268.748 46.07 268.571 45.8109 268.331 45.6156C268.091 45.4203 267.789 45.3226 267.425 45.3226C267.058 45.3226 266.753 45.4203 266.511 45.6156C266.271 45.8109 266.093 46.07 265.976 46.3929C265.861 46.7133 265.804 47.0648 265.804 47.4476C265.804 47.833 265.861 48.1859 265.976 48.5062C266.093 48.8265 266.271 49.083 266.511 49.2758C266.753 49.4685 267.058 49.5648 267.425 49.5648ZM275.322 47.9359V44.4242H276.494V50.4242H275.346V49.3851H275.283C275.145 49.7054 274.924 49.9724 274.619 50.1859C274.317 50.3969 273.941 50.5023 273.49 50.5023C273.105 50.5023 272.764 50.4177 272.467 50.2484C272.173 50.0765 271.941 49.8226 271.771 49.4867C271.605 49.1508 271.521 48.7354 271.521 48.2406V44.4242H272.689V48.1C272.689 48.5088 272.803 48.8344 273.029 49.0765C273.256 49.3187 273.55 49.4398 273.912 49.4398C274.131 49.4398 274.348 49.3851 274.564 49.2758C274.783 49.1664 274.964 49.001 275.107 48.7797C275.253 48.5583 275.325 48.2771 275.322 47.9359ZM278.063 50.4242V44.4242H279.192V45.3773H279.255C279.364 45.0544 279.557 44.8005 279.833 44.6156C280.112 44.4281 280.427 44.3344 280.778 44.3344C280.851 44.3344 280.937 44.337 281.036 44.3422C281.138 44.3474 281.217 44.3539 281.274 44.3617V45.4789C281.228 45.4659 281.144 45.4515 281.024 45.4359C280.905 45.4177 280.785 45.4086 280.665 45.4086C280.389 45.4086 280.143 45.4672 279.927 45.5844C279.713 45.6989 279.544 45.8591 279.419 46.0648C279.294 46.2679 279.231 46.4997 279.231 46.7601V50.4242H278.063Z" fill="black"/>
<path d="M91.7861 20.0737L90.7275 20.2612C90.6833 20.1258 90.613 19.9969 90.5166 19.8745C90.4229 19.7521 90.2952 19.6519 90.1338 19.5737C89.9723 19.4956 89.7705 19.4565 89.5283 19.4565C89.1976 19.4565 88.9215 19.5308 88.7002 19.6792C88.4788 19.825 88.3682 20.0138 88.3682 20.2456C88.3682 20.4461 88.4424 20.6076 88.5908 20.73C88.7393 20.8524 88.9788 20.9526 89.3096 21.0308L90.2627 21.2495C90.8148 21.3771 91.2262 21.5737 91.4971 21.8394C91.7679 22.105 91.9033 22.45 91.9033 22.8745C91.9033 23.2339 91.7992 23.5542 91.5908 23.8354C91.3851 24.1141 91.0973 24.3328 90.7275 24.4917C90.3604 24.6506 89.9346 24.73 89.4502 24.73C88.7783 24.73 88.2301 24.5868 87.8057 24.3003C87.3812 24.0112 87.1208 23.6011 87.0244 23.0698L88.1533 22.8979C88.2236 23.1922 88.3682 23.4149 88.5869 23.5659C88.8057 23.7144 89.0908 23.7886 89.4424 23.7886C89.8252 23.7886 90.1312 23.7091 90.3604 23.5503C90.5895 23.3888 90.7041 23.1922 90.7041 22.9604C90.7041 22.7729 90.6338 22.6154 90.4932 22.4878C90.3551 22.3602 90.1429 22.2638 89.8564 22.1987L88.8408 21.9761C88.2809 21.8485 87.8669 21.6453 87.5986 21.3667C87.333 21.0881 87.2002 20.7352 87.2002 20.3081C87.2002 19.9539 87.2992 19.644 87.4971 19.3784C87.695 19.1128 87.9684 18.9058 88.3174 18.7573C88.6663 18.6063 89.0661 18.5308 89.5166 18.5308C90.165 18.5308 90.6755 18.6714 91.0479 18.9526C91.4202 19.2313 91.6663 19.605 91.7861 20.0737ZM93.1875 24.6089V18.6089H94.3555V24.6089H93.1875ZM93.7773 17.6831C93.5742 17.6831 93.3997 17.6154 93.2539 17.48C93.1107 17.342 93.0391 17.1779 93.0391 16.9878C93.0391 16.7951 93.1107 16.631 93.2539 16.4956C93.3997 16.3576 93.5742 16.2886 93.7773 16.2886C93.9805 16.2886 94.1536 16.3576 94.2969 16.4956C94.4427 16.631 94.5156 16.7951 94.5156 16.9878C94.5156 17.1779 94.4427 17.342 94.2969 17.48C94.1536 17.6154 93.9805 17.6831 93.7773 17.6831ZM95.8018 24.6089V23.8081L99.0518 19.6792V19.6245H95.9072V18.6089H100.509V19.4604L97.3838 23.5386V23.5933H100.618V24.6089H95.8018ZM104.41 24.73C103.819 24.73 103.31 24.6037 102.883 24.3511C102.458 24.0959 102.13 23.7378 101.898 23.2769C101.669 22.8133 101.555 22.2703 101.555 21.6479C101.555 21.0334 101.669 20.4917 101.898 20.0229C102.13 19.5542 102.453 19.1883 102.867 18.9253C103.284 18.6623 103.771 18.5308 104.328 18.5308C104.667 18.5308 104.995 18.5868 105.313 18.6987C105.63 18.8107 105.915 18.9865 106.168 19.2261C106.421 19.4657 106.62 19.7769 106.766 20.1597C106.911 20.5399 106.984 21.0021 106.984 21.5464V21.9604H102.215V21.0854H105.84C105.84 20.7782 105.777 20.506 105.652 20.269C105.527 20.0295 105.352 19.8407 105.125 19.7026C104.901 19.5646 104.638 19.4956 104.336 19.4956C104.008 19.4956 103.721 19.5763 103.477 19.7378C103.234 19.8966 103.047 20.105 102.914 20.3628C102.784 20.618 102.719 20.8953 102.719 21.1948V21.8784C102.719 22.2795 102.789 22.6206 102.93 22.9019C103.073 23.1831 103.272 23.3979 103.527 23.5464C103.783 23.6922 104.081 23.7651 104.422 23.7651C104.643 23.7651 104.845 23.7339 105.027 23.6714C105.21 23.6063 105.367 23.5099 105.5 23.3823C105.633 23.2547 105.734 23.0972 105.805 22.9097L106.91 23.1089C106.822 23.4344 106.663 23.7196 106.434 23.9644C106.207 24.2065 105.922 24.3953 105.578 24.5308C105.237 24.6636 104.848 24.73 104.41 24.73Z" fill="black"/>
<path d="M23.6362 115.609V116.546H20.3589V115.609H23.6362ZM21.2378 114.171H22.4058V119.847C22.4058 120.074 22.4396 120.244 22.5073 120.359C22.575 120.471 22.6623 120.548 22.769 120.589C22.8784 120.628 22.9969 120.648 23.1245 120.648C23.2183 120.648 23.3003 120.641 23.3706 120.628C23.4409 120.615 23.4956 120.605 23.5347 120.597L23.7456 121.562C23.6779 121.588 23.5815 121.614 23.4565 121.64C23.3315 121.669 23.1753 121.684 22.9878 121.687C22.6805 121.692 22.394 121.638 22.1284 121.523C21.8628 121.408 21.6479 121.231 21.4839 120.992C21.3198 120.752 21.2378 120.451 21.2378 120.089V114.171ZM26.229 121.609L24.4634 115.609H25.6704L26.8462 120.015H26.9048L28.0845 115.609H29.2915L30.4634 119.996H30.522L31.6899 115.609H32.897L31.1353 121.609H29.9438L28.7251 117.277H28.6353L27.4165 121.609H26.229ZM34.0054 121.609V115.609H35.1733V121.609H34.0054ZM34.5952 114.683C34.3921 114.683 34.2176 114.615 34.0718 114.48C33.9285 114.342 33.8569 114.178 33.8569 113.988C33.8569 113.795 33.9285 113.631 34.0718 113.496C34.2176 113.358 34.3921 113.289 34.5952 113.289C34.7983 113.289 34.9715 113.358 35.1147 113.496C35.2606 113.631 35.3335 113.795 35.3335 113.988C35.3335 114.178 35.2606 114.342 35.1147 114.48C34.9715 114.615 34.7983 114.683 34.5952 114.683ZM41.2407 117.074L40.1821 117.261C40.1379 117.126 40.0675 116.997 39.9712 116.875C39.8774 116.752 39.7498 116.652 39.5884 116.574C39.4269 116.496 39.2251 116.457 38.9829 116.457C38.6522 116.457 38.3761 116.531 38.1548 116.679C37.9334 116.825 37.8228 117.014 37.8228 117.246C37.8228 117.446 37.897 117.608 38.0454 117.73C38.1938 117.852 38.4334 117.953 38.7642 118.031L39.7173 118.25C40.2694 118.377 40.6808 118.574 40.9517 118.839C41.2225 119.105 41.3579 119.45 41.3579 119.875C41.3579 120.234 41.2537 120.554 41.0454 120.835C40.8397 121.114 40.5519 121.333 40.1821 121.492C39.8149 121.651 39.3892 121.73 38.9048 121.73C38.2329 121.73 37.6847 121.587 37.2603 121.3C36.8358 121.011 36.5754 120.601 36.479 120.07L37.6079 119.898C37.6782 120.192 37.8228 120.415 38.0415 120.566C38.2603 120.714 38.5454 120.789 38.897 120.789C39.2798 120.789 39.5858 120.709 39.8149 120.55C40.0441 120.389 40.1587 120.192 40.1587 119.96C40.1587 119.773 40.0884 119.615 39.9478 119.488C39.8097 119.36 39.5975 119.264 39.311 119.199L38.2954 118.976C37.7355 118.848 37.3215 118.645 37.0532 118.367C36.7876 118.088 36.6548 117.735 36.6548 117.308C36.6548 116.954 36.7537 116.644 36.9517 116.378C37.1496 116.113 37.423 115.906 37.772 115.757C38.1209 115.606 38.5207 115.531 38.9712 115.531C39.6196 115.531 40.13 115.671 40.5024 115.953C40.8748 116.231 41.1209 116.605 41.2407 117.074ZM45.4429 115.609V116.546H42.1655V115.609H45.4429ZM43.0444 114.171H44.2124V119.847C44.2124 120.074 44.2463 120.244 44.314 120.359C44.3817 120.471 44.4689 120.548 44.5757 120.589C44.6851 120.628 44.8035 120.648 44.9312 120.648C45.0249 120.648 45.1069 120.641 45.1772 120.628C45.2476 120.615 45.3022 120.605 45.3413 120.597L45.5522 121.562C45.4845 121.588 45.3882 121.614 45.2632 121.64C45.1382 121.669 44.9819 121.684 44.7944 121.687C44.4871 121.692 44.2007 121.638 43.9351 121.523C43.6694 121.408 43.4546 121.231 43.2905 120.992C43.1265 120.752 43.0444 120.451 43.0444 120.089V114.171Z" fill="black"/>
<path d="M181.573 114.859V106.609H182.714V107.582H182.812C182.879 107.457 182.977 107.312 183.104 107.148C183.232 106.984 183.409 106.841 183.636 106.718C183.862 106.593 184.162 106.531 184.534 106.531C185.019 106.531 185.451 106.653 185.831 106.898C186.211 107.143 186.509 107.496 186.726 107.957C186.944 108.417 187.054 108.972 187.054 109.621C187.054 110.269 186.946 110.825 186.729 111.289C186.513 111.75 186.216 112.105 185.839 112.355C185.461 112.602 185.03 112.726 184.546 112.726C184.181 112.726 183.883 112.665 183.651 112.542C183.422 112.42 183.243 112.277 183.112 112.113C182.982 111.949 182.882 111.803 182.812 111.675H182.741V114.859H181.573ZM182.718 109.609C182.718 110.031 182.779 110.401 182.901 110.718C183.024 111.036 183.201 111.285 183.433 111.464C183.664 111.641 183.948 111.73 184.284 111.73C184.633 111.73 184.925 111.638 185.159 111.453C185.394 111.265 185.571 111.011 185.69 110.691C185.813 110.371 185.874 110.01 185.874 109.609C185.874 109.213 185.814 108.858 185.694 108.542C185.577 108.227 185.4 107.979 185.163 107.796C184.929 107.614 184.636 107.523 184.284 107.523C183.946 107.523 183.659 107.61 183.425 107.785C183.193 107.959 183.017 108.203 182.897 108.515C182.778 108.828 182.718 109.192 182.718 109.609ZM192.163 110.121V106.609H193.335V112.609H192.187V111.57H192.124C191.986 111.89 191.765 112.157 191.46 112.371C191.158 112.582 190.782 112.687 190.331 112.687C189.946 112.687 189.604 112.602 189.308 112.433C189.013 112.261 188.782 112.007 188.612 111.671C188.446 111.335 188.362 110.92 188.362 110.425V106.609H189.53V110.285C189.53 110.694 189.644 111.019 189.87 111.261C190.097 111.503 190.391 111.625 190.753 111.625C190.972 111.625 191.189 111.57 191.405 111.46C191.624 111.351 191.805 111.186 191.948 110.964C192.094 110.743 192.166 110.462 192.163 110.121ZM196.072 104.609V112.609H194.904V104.609H196.072ZM202.14 108.074L201.081 108.261C201.037 108.126 200.966 107.997 200.87 107.875C200.776 107.752 200.649 107.652 200.487 107.574C200.326 107.496 200.124 107.457 199.882 107.457C199.551 107.457 199.275 107.531 199.054 107.679C198.832 107.825 198.722 108.014 198.722 108.246C198.722 108.446 198.796 108.608 198.944 108.73C199.093 108.852 199.332 108.953 199.663 109.031L200.616 109.25C201.168 109.377 201.58 109.574 201.851 109.839C202.121 110.105 202.257 110.45 202.257 110.875C202.257 111.234 202.153 111.554 201.944 111.835C201.739 112.114 201.451 112.333 201.081 112.492C200.714 112.651 200.288 112.73 199.804 112.73C199.132 112.73 198.584 112.587 198.159 112.3C197.735 112.011 197.474 111.601 197.378 111.07L198.507 110.898C198.577 111.192 198.722 111.415 198.94 111.566C199.159 111.714 199.444 111.789 199.796 111.789C200.179 111.789 200.485 111.709 200.714 111.55C200.943 111.389 201.058 111.192 201.058 110.96C201.058 110.773 200.987 110.615 200.847 110.488C200.709 110.36 200.496 110.264 200.21 110.199L199.194 109.976C198.634 109.848 198.22 109.645 197.952 109.367C197.687 109.088 197.554 108.735 197.554 108.308C197.554 107.954 197.653 107.644 197.851 107.378C198.049 107.113 198.322 106.906 198.671 106.757C199.02 106.606 199.42 106.531 199.87 106.531C200.519 106.531 201.029 106.671 201.401 106.953C201.774 107.231 202.02 107.605 202.14 108.074ZM206.127 112.73C205.536 112.73 205.027 112.604 204.6 112.351C204.175 112.096 203.847 111.738 203.615 111.277C203.386 110.813 203.271 110.27 203.271 109.648C203.271 109.033 203.386 108.492 203.615 108.023C203.847 107.554 204.17 107.188 204.584 106.925C205.001 106.662 205.488 106.531 206.045 106.531C206.383 106.531 206.712 106.587 207.029 106.699C207.347 106.811 207.632 106.986 207.885 107.226C208.137 107.466 208.337 107.777 208.482 108.16C208.628 108.54 208.701 109.002 208.701 109.546V109.96H203.932V109.085H207.557C207.557 108.778 207.494 108.506 207.369 108.269C207.244 108.029 207.068 107.841 206.842 107.703C206.618 107.565 206.355 107.496 206.053 107.496C205.725 107.496 205.438 107.576 205.193 107.738C204.951 107.897 204.764 108.105 204.631 108.363C204.501 108.618 204.436 108.895 204.436 109.195V109.878C204.436 110.279 204.506 110.621 204.646 110.902C204.79 111.183 204.989 111.398 205.244 111.546C205.499 111.692 205.798 111.765 206.139 111.765C206.36 111.765 206.562 111.734 206.744 111.671C206.926 111.606 207.084 111.51 207.217 111.382C207.35 111.255 207.451 111.097 207.521 110.91L208.627 111.109C208.538 111.434 208.38 111.72 208.15 111.964C207.924 112.207 207.639 112.395 207.295 112.531C206.954 112.664 206.564 112.73 206.127 112.73Z" fill="black"/>
</svg>
