<svg width="277" height="204" viewBox="0 0 277 204" fill="none" xmlns="http://www.w3.org/2000/svg">
<circle cx="107.5" cy="47.5" r="19.5" fill="white"/>
<rect x="276.302" y="93.2798" width="50" height="98" rx="6" transform="rotate(127.163 276.302 93.2798)" fill="white"/>
<path d="M140.804 57C143.113 53 148.887 53 151.196 57L208.354 156C210.663 160 207.776 165 203.158 165H88.8423C84.2235 165 81.3368 160 83.6462 156L140.804 57Z" fill="white"/>
<rect x="45.0251" y="89.2511" width="62" height="62" rx="6" transform="rotate(46.3399 45.0251 89.2511)" fill="white"/>
<path d="M33 87C33 87 35.75 81 44 81C52.25 81 55 87 55 87" stroke="white" stroke-width="2"/>
<path d="M257 136C257 136 254.25 142 246 142C237.75 142 235 136 235 136" stroke="white" stroke-width="2"/>
<path d="M188 32C188 32 190.75 26 199 26C207.25 26 210 32 210 32" stroke="white" stroke-width="2"/>
<path d="M90.5848 174.238C90.5848 174.238 84.7736 177.367 78.1914 172.394C71.6091 167.42 73.0323 160.975 73.0323 160.975" stroke="white" stroke-width="2"/>
<path d="M22 84C22 84 27.5 72 44 72C60.5 72 66 84 66 84" stroke="white" stroke-width="2"/>
<path d="M80.0396 41.3691C80.0396 41.3691 79.9915 28.1688 94.9659 21.2393C109.94 14.3099 119.971 22.8905 119.971 22.8905" stroke="white" stroke-width="2"/>
<path d="M69.7119 43.1217C69.7119 43.1217 69.1464 23.1494 90.5858 13.2282C112.025 3.30706 126.883 16.6652 126.883 16.6652" stroke="white" stroke-width="2"/>
<path d="M268 139C268 139 262.5 151 246 151C229.5 151 224 139 224 139" stroke="white" stroke-width="2"/>
</svg>
