<?xml version="1.0" encoding="utf-8"?>
<!-- Generator: Adobe Illustrator 27.3.1, SVG Export Plug-In . SVG Version: 6.00 Build 0)  -->
<svg version="1.1" id="Layer_1" xmlns="http://www.w3.org/2000/svg" xmlns:xlink="http://www.w3.org/1999/xlink" x="0px" y="0px"
	 viewBox="0 0 582.46 582.46" style="enable-background:new 0 0 582.46 582.46;" xml:space="preserve">
<g>
	<path d="M-301.78,21.29h-448.86c-13.47,0-24.39-10.92-24.39-24.39v-448.86c0-13.47,10.92-24.39,24.39-24.39h448.86
		c13.47,0,24.39,10.92,24.39,24.39V-3.1C-277.39,10.37-288.31,21.29-301.78,21.29z"/>
</g>
<circle cx="1142.95" cy="-1044.96" r="263.32"/>
<ellipse cx="1692.98" cy="-849.29" rx="209.63" ry="322.91"/>
<path d="M539.83-688.26H315.62c-13.47,0-24.39-10.92-24.39-24.39v-591.84c0-13.47,10.92-24.39,24.39-24.39h224.22
	c13.47,0,24.39,10.92,24.39,24.39v591.84C564.22-699.18,553.3-688.26,539.83-688.26z"/>
<path d="M270.11,46.72L11.55,494.56c-9.39,16.26,2.35,36.58,21.12,36.58h517.12c18.77,0,30.51-20.32,21.12-36.58L312.35,46.72
	C302.96,30.46,279.5,30.46,270.11,46.72z"/>
</svg>
